<svg width="44" height="44" viewBox="0 0 44 44" fill="none" xmlns="http://www.w3.org/2000/svg">
<g id="solar:notes-outline">
<path id="Vector" fill-rule="evenodd" clip-rule="evenodd" d="M30.0558 3.70517L30.1768 3.73817C32.1935 4.279 33.7903 4.70617 35.0461 5.16083C36.3313 5.62467 37.38 6.1545 38.2435 6.963C39.5002 8.14096 40.3794 9.66516 40.7698 11.3428C41.0393 12.4942 40.9751 13.6675 40.7331 15.0113C40.5003 16.3277 40.0731 17.9245 39.5323 19.9393L38.5496 23.6042C38.0106 25.619 37.5816 27.2158 37.1288 28.4717C36.6631 29.7568 36.1333 30.8055 35.3248 31.669C34.1853 32.8857 32.7205 33.7498 31.1045 34.1587C30.6309 35.2442 29.941 36.2217 29.0768 37.0315C28.2133 37.84 27.1646 38.3698 25.8795 38.8355C24.6236 39.2902 23.0268 39.7173 21.012 40.2582L20.8891 40.2912C18.8725 40.8302 17.2775 41.2573 15.9611 41.4938C14.6173 41.734 13.444 41.7982 12.2908 41.5305C10.6133 41.1387 9.08977 40.2583 7.91279 39.0005C7.10612 38.1388 6.57445 37.0902 6.10879 35.805C5.65595 34.5492 5.22879 32.9523 4.68795 30.9357L3.70529 27.2727C3.16629 25.256 2.73729 23.661 2.50262 22.3447C2.26245 21.0008 2.19829 19.8275 2.46595 18.6743C2.85772 16.9969 3.73818 15.4733 4.99595 14.2963C5.85762 13.4897 6.90629 12.958 8.19145 12.4923C9.44729 12.0395 11.0441 11.6123 13.059 11.0715L13.1213 11.0532L14.4981 10.6865C15.2168 8.12167 15.8475 6.3085 17.0795 4.994C18.2567 3.7369 19.7802 2.85709 21.4575 2.46583C22.6106 2.19817 23.7821 2.26233 25.1278 2.5025C26.4423 2.73717 28.0391 3.16617 30.0558 3.70517ZM13.6676 13.7555C11.6638 14.2927 10.2283 14.6813 9.12462 15.0792C8.00629 15.4825 7.35179 15.8565 6.87512 16.3038C6.01465 17.1092 5.41236 18.1518 5.14445 19.2995C4.99779 19.9375 4.99962 20.6928 5.21045 21.8607C5.42129 23.0468 5.81912 24.5318 6.37829 26.6218L7.32795 30.1638C7.88712 32.2538 8.28679 33.7388 8.69562 34.87C9.09896 35.9883 9.47295 36.6447 9.92029 37.1213C10.7257 37.9818 11.7682 38.5841 12.916 38.852C13.5521 38.9987 14.3093 38.995 15.4771 38.786C16.6633 38.5752 18.1483 38.1773 20.2383 37.6182C22.3283 37.0572 23.8133 36.6593 24.9463 36.2487C26.0628 35.8453 26.7191 35.4713 27.1958 35.0258C27.4488 34.7875 27.678 34.5308 27.8851 34.2577C27.545 34.2091 27.2063 34.151 26.8695 34.0835C25.6375 33.8378 24.1561 33.4418 22.332 32.9523L22.2256 32.9248C20.2108 32.384 18.614 31.9568 17.3581 31.5022C16.073 31.0383 15.0243 30.5085 14.1608 29.7C12.9034 28.5223 12.0235 26.9981 11.6326 25.3202C11.365 24.1688 11.4291 22.9955 11.6693 21.6498C11.904 20.3353 12.333 18.7385 12.872 16.7237L13.6676 13.7555ZM24.6438 5.21033C23.4741 4.9995 22.7188 4.99583 22.0826 5.14433C20.9349 5.41224 19.8924 6.01453 19.087 6.875C18.2876 7.7275 17.7945 9.0475 16.9401 12.1788C16.8008 12.6885 16.6541 13.2367 16.4946 13.8325L15.545 17.3745C14.9858 19.4645 14.588 20.9495 14.3771 22.1357C14.1663 23.3035 14.1626 24.0607 14.3111 24.6968C14.579 25.8446 15.1813 26.8871 16.0418 27.6925C16.5185 28.1398 17.1748 28.512 18.2913 28.9172C19.4243 29.326 20.9093 29.7238 22.9993 30.2848C24.8785 30.789 26.2718 31.1612 27.4048 31.3848C28.5323 31.6103 29.2986 31.6653 29.9256 31.5883C30.0631 31.57 30.1933 31.548 30.3216 31.5187C31.4694 31.2508 32.5119 30.6485 33.3173 29.788C33.7646 29.3113 34.1386 28.655 34.542 27.5385C34.9508 26.4055 35.3486 24.9205 35.9096 22.8305L36.8593 19.2885C37.4185 17.1985 37.8163 15.7135 38.0271 14.5273C38.2361 13.3595 38.2416 12.6023 38.0931 11.9662C37.8252 10.8184 37.2229 9.77591 36.3625 8.9705C35.8858 8.52317 35.2295 8.151 34.113 7.74583C32.9781 7.337 31.495 6.93917 29.405 6.37817C27.315 5.819 25.83 5.42117 24.6438 5.21033ZM20.2621 17.9777C20.3089 17.8032 20.3896 17.6397 20.4996 17.4964C20.6096 17.3532 20.7468 17.233 20.9032 17.1428C21.0597 17.0526 21.2324 16.994 21.4115 16.9706C21.5906 16.9471 21.7725 16.9591 21.947 17.006L30.802 19.3783C31.1444 19.4813 31.4333 19.7137 31.6073 20.0261C31.7813 20.3385 31.8267 20.7065 31.7339 21.0518C31.6412 21.3972 31.4175 21.6928 31.1103 21.876C30.8032 22.0592 30.4368 22.1155 30.0888 22.033L21.2338 19.6607C20.8819 19.5661 20.5819 19.3358 20.3997 19.0202C20.2175 18.7047 20.168 18.3297 20.2621 17.9777ZM18.8376 23.2907C18.8844 23.116 18.9652 22.9523 19.0753 22.8089C19.1854 22.6655 19.3228 22.5453 19.4794 22.455C19.6361 22.3648 19.809 22.3063 19.9883 22.2829C20.1676 22.2596 20.3497 22.2719 20.5243 22.319L25.8355 23.7417C26.1877 23.836 26.4881 24.0664 26.6705 24.3822C26.8529 24.698 26.9024 25.0733 26.808 25.4256C26.7137 25.7779 26.4833 26.0782 26.1675 26.2606C25.8517 26.443 25.4764 26.4925 25.1241 26.3982L19.8111 24.9737C19.4592 24.8791 19.1592 24.6488 18.977 24.3332C18.7948 24.0177 18.7454 23.6427 18.8395 23.2907H18.8376Z" fill="#668FFA"/>
</g>
</svg>
