<svg width="44" height="44" viewBox="0 0 44 44" fill="none" xmlns="http://www.w3.org/2000/svg">
<g id="ic:outline-change-circle">
<path id="Vector" d="M22.0003 3.66669C11.8803 3.66669 3.66699 11.88 3.66699 22C3.66699 32.12 11.8803 40.3334 22.0003 40.3334C32.1203 40.3334 40.3337 32.12 40.3337 22C40.3337 11.88 32.1203 3.66669 22.0003 3.66669ZM22.0003 36.6667C13.9153 36.6667 7.33366 30.085 7.33366 22C7.33366 13.915 13.9153 7.33335 22.0003 7.33335C30.0853 7.33335 36.667 13.915 36.667 22C36.667 30.085 30.0853 36.6667 22.0003 36.6667ZM29.6453 27.06L27.6287 25.0434C28.9303 22.605 28.6003 19.525 26.547 17.4717C25.9519 16.8716 25.2435 16.3957 24.463 16.0716C23.6825 15.7474 22.8454 15.5815 22.0003 15.5834C21.9453 15.5834 21.8903 15.6017 21.8353 15.6017L23.8337 17.6L21.8903 19.5434L16.702 14.355L21.8903 9.16669L23.8337 11.11L22.0737 12.87C24.402 12.8884 26.712 13.75 28.4903 15.51C31.607 18.645 31.992 23.5034 29.6453 27.06ZM27.2987 29.645L22.1103 34.8334L20.167 32.89L21.9087 31.1484C19.5128 31.1297 17.2207 30.168 15.5287 28.4717C14.0364 26.9779 13.1049 25.0152 12.8911 22.9145C12.6774 20.8139 13.1945 18.7038 14.3553 16.94L16.372 18.9567C15.0703 21.395 15.4003 24.475 17.4537 26.5284C18.737 27.8117 20.442 28.435 22.147 28.38L20.167 26.4L22.1103 24.4567L27.2987 29.645Z" fill="#668FFA"/>
</g>
</svg>
