<svg width="476" height="167" viewBox="0 0 476 167" fill="none" xmlns="http://www.w3.org/2000/svg">
<rect width="334" height="167" rx="83.5" fill="black"/>
<path d="M83.4195 130V51.536H52.6995V40.4H126.812V51.536H96.0915V130H83.4195ZM125.102 130L162.35 79.184V89.04L127.15 40.4H141.742L169.646 78.672L163.886 78.8L191.662 40.4H205.614L170.67 88.272V79.056L207.918 130H193.198L163.502 89.168H169.134L139.822 130H125.102ZM236.92 130V51.536H206.2V40.4H280.312V51.536H249.592V130H236.92Z" fill="white"/>
<path d="M399.222 54.1818V63.2727H361.585V54.1818H399.222ZM372.858 124V44.5455C372.858 40.5455 373.797 37.2121 375.676 34.5454C377.555 31.8788 379.994 29.8788 382.994 28.5454C385.994 27.2121 389.161 26.5454 392.494 26.5454C395.131 26.5454 397.282 26.7576 398.949 27.1818C400.616 27.6061 401.858 28 402.676 28.3636L399.585 37.6364C399.04 37.4545 398.282 37.2273 397.312 36.9545C396.373 36.6818 395.131 36.5454 393.585 36.5454C390.04 36.5454 387.479 37.4394 385.903 39.2273C384.358 41.0151 383.585 43.6364 383.585 47.0909V124H372.858ZM421.165 150.182C419.347 150.182 417.725 150.03 416.301 149.727C414.877 149.455 413.892 149.182 413.347 148.909L416.074 139.455C418.68 140.121 420.983 140.364 422.983 140.182C424.983 140 426.756 139.106 428.301 137.5C429.877 135.924 431.316 133.364 432.619 129.818L434.619 124.364L408.801 54.1818H420.438L439.71 109.818H440.438L459.71 54.1818H471.347L441.71 134.182C440.377 137.788 438.725 140.773 436.756 143.136C434.786 145.53 432.498 147.303 429.892 148.455C427.316 149.606 424.407 150.182 421.165 150.182Z" fill="black"/>
</svg>
