<svg width="110" height="91" viewBox="0 0 110 91" fill="none" xmlns="http://www.w3.org/2000/svg">
<g id="Intersect" style="mix-blend-mode:multiply">
<path d="M9.59402 0.737926C7.96997 0.409857 6.38747 1.46046 6.0594 3.08451L0.71321 29.5499C0.385141 31.174 1.43574 32.7565 3.05979 33.0845C4.68384 33.4126 6.26634 32.362 6.59441 30.738L11.3466 7.21315L34.8714 11.9653C36.4954 12.2934 38.0779 11.2428 38.406 9.61874C38.7341 7.99469 37.6835 6.41218 36.0594 6.08411L9.59402 0.737926ZM109.127 84.7386C69.5716 67.0014 35.5835 38.2968 11.4994 2.01924L6.50064 5.33781C31.2148 42.5644 66.0868 72.0143 106.672 90.2134L109.127 84.7386Z" fill="#233ED2" fill-opacity="0.7"/>
</g>
</svg>
