<svg width="94" height="93" viewBox="0 0 94 93" fill="none" xmlns="http://www.w3.org/2000/svg">
<g id="Intersect" style="mix-blend-mode:multiply">
<path d="M81.0473 92.8447C82.6184 93.3709 84.3186 92.5238 84.8447 90.9527L93.4188 65.3502C93.9449 63.7791 93.0978 62.079 91.5267 61.5528C89.9556 61.0267 88.2555 61.8738 87.7293 63.4449L80.108 86.2026L57.3502 78.5812C55.7791 78.0551 54.079 78.9022 53.5528 80.4733C53.0267 82.0444 53.8738 83.7445 55.4449 84.2707L81.0473 92.8447ZM0.443207 5.56445C34.1356 26.018 61.6051 55.7941 79.3148 91.3379L84.6852 88.6621C66.4693 52.1023 38.2166 21.4764 3.55679 0.435555L0.443207 5.56445Z" fill="#576FD6" fill-opacity="0.7"/>
</g>
</svg>
