<svg width="44" height="44" viewBox="0 0 44 44" fill="none" xmlns="http://www.w3.org/2000/svg">
<g id="ic:baseline-access-time">
<path id="Vector" d="M21.982 3.66669C11.862 3.66669 3.66699 11.88 3.66699 22C3.66699 32.12 11.862 40.3334 21.982 40.3334C32.1203 40.3334 40.3337 32.12 40.3337 22C40.3337 11.88 32.1203 3.66669 21.982 3.66669ZM22.0003 36.6667C13.897 36.6667 7.33366 30.1034 7.33366 22C7.33366 13.8967 13.897 7.33335 22.0003 7.33335C30.1037 7.33335 36.667 13.8967 36.667 22C36.667 30.1034 30.1037 36.6667 22.0003 36.6667Z" fill="#668FFA"/>
<path id="Vector_2" d="M22.917 12.8334H20.167V23.8334L29.792 29.6084L31.167 27.3534L22.917 22.4584V12.8334Z" fill="#668FFA"/>
</g>
</svg>
